<svg width="204" height="135" viewBox="0 0 204 135" fill="currentColor" xmlns="http://www.w3.org/2000/svg" style="color: white">
    <path d="M172.86 65.4207C172.41 58.4207 170.74 51.7307 168.06 45.5007C160.43 27.7607 144.58 13.8307 124.8 7.6707H124.79C117.61 5.4307 109.92 4.2207 101.92 4.2207C93.9201 4.2207 86.2301 5.4307 79.0501 7.6707C59.2801 13.8307 43.4201 27.7607 35.7901 45.4907C33.1101 51.7307 31.4401 58.4207 30.9901 65.4207C30.8901 66.7407 30.8501 68.0707 30.8501 69.4107C30.8501 70.4407 30.8801 71.4707 30.9301 72.4807C31.0101 74.0607 31.1501 75.6307 31.3501 77.1707C31.6601 79.5507 32.1001 81.8807 32.6801 84.1707C33.0501 85.6207 33.4601 87.0507 33.9401 88.4607C34.6901 90.7407 35.5901 92.9807 36.6101 95.1507C47.4901 118.351 72.6301 134.601 101.92 134.601C131.21 134.601 156.36 118.351 167.25 95.1507C168.27 92.9807 169.16 90.7407 169.92 88.4607C170.39 87.0507 170.81 85.6207 171.17 84.1707C171.75 81.8807 172.19 79.5507 172.5 77.1707C172.7 75.6307 172.84 74.0607 172.92 72.4807C172.97 71.4707 173 70.4407 173 69.4107C173 68.0707 172.96 66.7407 172.86 65.4207ZM60.5301 56.2607C60.5301 48.9907 66.4201 43.1007 73.6901 43.1007C80.9601 43.1007 86.8501 48.9907 86.8501 56.2607C86.8501 63.5307 80.9601 69.4107 73.6901 69.4107C66.4201 69.4107 60.5301 63.5207 60.5301 56.2607ZM129.01 88.8907C128.01 96.5007 121.46 102.231 113.78 102.231C109.02 102.231 104.75 100.051 101.93 96.6307C99.1101 100.051 94.8401 102.231 90.0701 102.231C82.3801 102.231 75.8301 96.4907 74.8401 88.8707C74.5901 86.9607 75.9401 85.2007 77.8601 84.9507C79.7701 84.7107 81.5301 86.0507 81.7801 87.9707C82.3201 92.1107 85.8801 95.2307 90.0701 95.2307C94.2601 95.2307 97.4801 92.3607 98.2601 88.5507L92.6501 78.8207C92.0201 77.7407 92.0201 76.4007 92.6501 75.3207C93.2701 74.2407 94.4301 73.5707 95.6801 73.5707H108.17C109.42 73.5707 110.58 74.2407 111.2 75.3207C111.83 76.4007 111.83 77.7407 111.2 78.8207L105.6 88.5307C106.37 92.3507 109.75 95.2307 113.78 95.2307C117.81 95.2307 121.53 92.1107 122.07 87.9807C122.32 86.0607 124.09 84.7107 126 84.9607C127.91 85.2207 129.26 86.9707 129.01 88.8907ZM130.16 69.4107C122.89 69.4107 117 63.5207 117 56.2607C117 49.0007 122.89 43.1007 130.16 43.1007C137.43 43.1007 143.32 48.9907 143.32 56.2607C143.32 63.5307 137.43 69.4107 130.16 69.4107Z"/>
    <path d="M179.48 0.231001L119.29 8.421L156.47 56.451C158.54 59.121 162.72 58.551 163.99 55.431L184.13 6.241C185.41 3.121 182.83 -0.218999 179.48 0.241001V0.231001Z"/>
    <path d="M24.37 0.231001L84.56 8.421L47.37 56.451C45.3 59.121 41.12 58.551 39.85 55.431L19.72 6.241C18.44 3.111 21.02 -0.218999 24.37 0.231001Z"/>
    <path d="M143.87 76.4509C142.15 76.4509 140.65 75.1809 140.41 73.4309C140.15 71.5109 141.48 69.7509 143.4 69.4809L192.53 62.7009C194.44 62.4409 196.21 63.7709 196.48 65.6909C196.74 67.6109 195.41 69.3709 193.49 69.6409L144.36 76.4209C144.2 76.4409 144.04 76.4509 143.88 76.4509H143.87Z"/>
    <path d="M193.01 98.6709C192.85 98.6709 192.69 98.6609 192.53 98.6409L143.4 91.8609C141.48 91.6009 140.15 89.8309 140.41 87.9109C140.67 85.9909 142.46 84.6609 144.36 84.9209L193.49 91.7009C195.41 91.9609 196.74 93.7309 196.48 95.6509C196.24 97.4009 194.74 98.6709 193.02 98.6709H193.01Z"/>
    <path d="M200.35 84.1709H148.96C147.03 84.1709 145.46 82.6009 145.46 80.6709C145.46 78.7409 147.03 77.1709 148.96 77.1709H200.35C202.28 77.1709 203.85 78.7409 203.85 80.6709C203.85 82.6009 202.28 84.1709 200.35 84.1709Z"/>
    <path d="M59.97 76.4509C59.81 76.4509 59.65 76.4409 59.49 76.4209L10.36 69.6409C8.44 69.3809 7.11 67.6109 7.37 65.6909C7.63 63.7709 9.41 62.4409 11.32 62.7009L60.45 69.4809C62.37 69.7409 63.7 71.5109 63.44 73.4309C63.2 75.1809 61.7 76.4509 59.98 76.4509H59.97Z"/>
    <path d="M10.84 98.6709C9.12 98.6709 7.62 97.4009 7.38 95.6509C7.12 93.7309 8.45 91.9709 10.37 91.7009L59.5 84.9209C61.41 84.6509 63.18 85.9909 63.45 87.9109C63.71 89.8309 62.38 91.5909 60.46 91.8609L11.33 98.6409C11.17 98.6609 11.01 98.6709 10.85 98.6709H10.84Z"/>
    <path d="M54.89 84.1709H3.5C1.57 84.1709 0 82.6009 0 80.6709C0 78.7409 1.57 77.1709 3.5 77.1709H54.89C56.82 77.1709 58.39 78.7409 58.39 80.6709C58.39 82.6009 56.82 84.1709 54.89 84.1709Z"/>
</svg>
