<svg width="111" height="112" viewBox="0 0 111 112" fill="none" xmlns="http://www.w3.org/2000/svg">
<path fill-rule="evenodd" clip-rule="evenodd" d="M8.58564 8.77558V43.1181H42.9282V8.77558H8.58564ZM51.058 3.02817C50.2778 1.35194 48.5785 0.189941 46.6077 0.189941H4.90608C2.19653 0.189941 0 2.38647 0 5.09602V46.7977C0 48.7684 1.162 50.4678 2.83823 51.248C3.46662 51.5405 4.16728 51.7038 4.90608 51.7038H46.6077C47.3465 51.7038 48.0472 51.5405 48.6756 51.248C49.7234 50.7603 50.5703 49.9134 51.058 48.8655C51.3505 48.2371 51.5138 47.5365 51.5138 46.7977V5.09602C51.5138 4.35722 51.3505 3.65656 51.058 3.02817ZM48.6756 60.1319C48.0472 59.8394 47.3465 59.6761 46.6077 59.6761H4.90608C4.16728 59.6761 3.46662 59.8394 2.83823 60.1319C1.162 60.9121 0 62.6115 0 64.5822V106.284C0 108.993 2.19653 111.19 4.90608 111.19H46.6077C48.5785 111.19 50.2778 110.028 51.058 108.352C51.3505 107.723 51.5138 107.023 51.5138 106.284V64.5822C51.5138 63.8434 51.3505 63.1428 51.058 62.5144C50.5703 61.4665 49.7234 60.6196 48.6756 60.1319ZM59.942 108.352C60.7222 110.028 62.4215 111.19 64.3923 111.19H106.094C108.803 111.19 111 108.993 111 106.284V64.5822C111 62.6115 109.838 60.9121 108.162 60.1319C107.533 59.8394 106.833 59.6761 106.094 59.6761H64.3923C63.6535 59.6761 62.9528 59.8394 62.3244 60.1319C61.2766 60.6196 60.4297 61.4665 59.942 62.5144C59.6495 63.1428 59.4862 63.8434 59.4862 64.5822V106.284C59.4862 107.023 59.6495 107.723 59.942 108.352ZM62.3244 51.248C62.9528 51.5405 63.6535 51.7038 64.3923 51.7038H106.094C106.833 51.7038 107.533 51.5405 108.162 51.248C109.838 50.4678 111 48.7684 111 46.7977V5.09602C111 2.38647 108.803 0.189941 106.094 0.189941H64.3923C62.4215 0.189941 60.7222 1.35194 59.942 3.02817C59.6495 3.65656 59.4862 4.35722 59.4862 5.09602V46.7977C59.4862 47.5365 59.6495 48.2371 59.942 48.8655C60.4297 49.9134 61.2766 50.7603 62.3244 51.248ZM8.58564 68.2618V102.604H42.9282V68.2618H8.58564ZM68.0718 8.77558V43.1181H102.414V8.77558H68.0718ZM68.0718 68.2618V102.604H102.414V68.2618H68.0718Z" fill="white"/>
</svg>
