<svg xmlns="http://www.w3.org/2000/svg" viewBox="0 0 194.86 194.87" fill="currentColor">
    <g id="a"/>
    <g id="b">
        <g id="c">
            <g>
                <path d="M97.43,191.06c-23.99,0-47.97-9.13-66.23-27.39C13.51,145.98,3.76,122.46,3.76,97.44S13.51,48.9,31.2,31.2C67.72-5.32,127.14-5.32,163.66,31.2c17.69,17.69,27.43,41.21,27.43,66.23s-9.74,48.54-27.43,66.23c-18.26,18.26-42.25,27.39-66.23,27.39Zm0-167.29c-19.68,0-38.18,7.66-52.09,21.58-13.91,13.91-21.58,32.41-21.58,52.09s7.66,38.18,21.58,52.09c13.91,13.91,32.41,21.58,52.09,21.58s38.18-7.66,52.09-21.58c13.91-13.91,21.58-32.41,21.58-52.09s-7.66-38.18-21.58-52.09c-13.91-13.91-32.41-21.58-52.09-21.58Z"/>
                <circle cx="97.43" cy="97.44" r="21.48"/>
                <path d="M166.24,72.79c-8.86,8.41-30.11,14.06-44.17,0-14.05-14.05-8.4-35.3,0-44.16l.03-.03c1.23-1.3,2.74-2.31,4.4-2.97l15.27-6.05L190.56,.23c2.56-1.01,5.09,1.52,4.07,4.07l-19.34,48.8-6.05,15.26c-.66,1.66-1.67,3.16-2.97,4.4l-.03,.03Z"/>
                <path d="M28.62,122.08c8.86-8.41,30.11-14.06,44.17,0,14.05,14.05,8.4,35.3,0,44.16l-.03,.03c-1.23,1.3-2.74,2.31-4.4,2.97l-15.27,6.05L4.3,194.64c-2.56,1.01-5.09-1.52-4.07-4.07l19.34-48.8,6.05-15.26c.66-1.66,1.67-3.16,2.97-4.4l.03-.03Z"/>
            </g>
        </g>
    </g>
</svg>
