<svg width="150" height="149" viewBox="0 0 150 149" fill="none" xmlns="http://www.w3.org/2000/svg">
<rect width="150" height="149" fill="#262626"/>
<path fill-rule="evenodd" clip-rule="evenodd" d="M74.864 131.188C106.422 131.188 132.005 105.605 132.005 74.0469C132.005 42.489 106.422 16.9062 74.864 16.9062C43.306 16.9062 17.7232 42.489 17.7232 74.0469C17.7232 105.605 43.306 131.188 74.864 131.188ZM74.864 147.514C115.438 147.514 148.331 114.621 148.331 74.0469C148.331 33.4724 115.438 0.580285 74.864 0.580285C34.2895 0.580285 1.39733 33.4724 1.39733 74.0469C1.39733 114.621 34.2895 147.514 74.864 147.514Z" fill="white"/>
<path d="M92.0052 74.047C92.0052 83.5143 84.3304 91.1892 74.863 91.1892C65.3957 91.1892 57.7208 83.5143 57.7208 74.047C57.7208 64.5796 65.3957 56.9047 74.863 56.9047C84.3304 56.9047 92.0052 64.5796 92.0052 74.047Z" fill="white"/>
<path d="M126.927 54.9752C126.914 55.0038 126.921 55.0369 126.943 55.0588C126.981 55.0968 126.968 55.1613 126.919 55.1824L126.863 55.2062C126.835 55.2181 126.813 55.2401 126.801 55.2678L126.778 55.3236C126.757 55.373 126.692 55.3854 126.654 55.3474C126.632 55.3255 126.599 55.3191 126.57 55.3313L111.573 61.742C104.662 64.6961 96.6485 63.149 91.334 57.8344L-nan -nanCnan nan nan nan -nan -nanC-nan -nan -nan -nan -nan -nanC-nan -nan -nan -nan -nan -nanC-nan -nan -nan -nan -nan -nanC-nan -nan -nan -nan -nan -nanC-nan -nan -nan -nan -nan -nanCnan nan nan nan nan nanLnan nanCnan nan nan nan -nan -nanC-nan -nan -nan -nan -nan -nanC-nan -nan -nan -nan -nan -nanC-nan -nan -nan -nan -nan -nanC-nan -nan -nan -nan -nan -nanC-nan -nan -nan -nan -nan -nanCnan nan nan nan -nan -nanL91.334 57.8344C86.0195 52.5199 84.4723 44.5069 87.4264 37.5959L93.8372 22.598C93.8494 22.5694 93.843 22.5363 93.821 22.5144C93.783 22.4764 93.7954 22.412 93.8449 22.3908L93.9006 22.367C93.9283 22.3552 93.9504 22.3331 93.9622 22.3054L93.986 22.2497C94.0072 22.2002 94.0716 22.1878 94.1096 22.2258C94.1316 22.2477 94.1647 22.2541 94.1932 22.2419L145.75 0.204473C147.78 -0.663511 149.832 1.38815 148.964 3.41879L126.927 54.9752Z" fill="white"/>
<path d="M22.2419 93.3764C22.2541 93.3478 22.2477 93.3147 22.2258 93.2928C22.1878 93.2548 22.2002 93.1904 22.2497 93.1692L22.3054 93.1454C22.3331 93.1335 22.3551 93.1115 22.367 93.0838L22.3908 93.028C22.4119 92.9786 22.4764 92.9662 22.5144 93.0042C22.5363 93.0261 22.5694 93.0325 22.598 93.0203L37.5959 86.6096C44.5069 83.6555 52.5199 85.2026 57.8344 90.5172L-nan -nanCnan nan nan nan -nan -nanC-nan -nan -nan -nan -nan -nanC-nan -nan -nan -nan -nan -nanC-nan -nan -nan -nan -nan -nanC-nan -nan -nan -nan -nan -nanC-nan -nan -nan -nan -nan -nanCnan nan nan nan nan nanLnan nanCnan nan nan nan -nan -nanC-nan -nan -nan -nan -nan -nanC-nan -nan -nan -nan -nan -nanC-nan -nan -nan -nan -nan -nanC-nan -nan -nan -nan -nan -nanC-nan -nan -nan -nan -nan -nanCnan nan nan nan -nan -nanL57.8344 90.5172C63.149 95.8317 64.6961 103.845 61.7421 110.756L55.3313 125.754C55.3191 125.782 55.3255 125.815 55.3474 125.837C55.3855 125.875 55.373 125.94 55.3236 125.961L55.2678 125.985C55.2401 125.996 55.2181 126.019 55.2062 126.046L55.1824 126.102C55.1613 126.151 55.0969 126.164 55.0588 126.126C55.0369 126.104 55.0038 126.097 54.9752 126.11L3.41879 148.147C1.38815 149.015 -0.66351 146.963 0.204473 144.933L22.2419 93.3764Z" fill="white"/>
</svg>
