<svg width="132" height="104" viewBox="0 0 132 104" fill="none" xmlns="http://www.w3.org/2000/svg">
<path d="M23 11.6899C23 18.0412 17.8513 23.1899 11.5 23.1899C5.14873 23.1899 0 18.0412 0 11.6899C0 5.33867 5.14873 0.189941 11.5 0.189941C17.8513 0.189941 23 5.33867 23 11.6899Z" fill="white"/>
<path d="M132 91.6899C132 98.0412 126.851 103.19 120.5 103.19C114.149 103.19 109 98.0412 109 91.6899C109 85.3387 114.149 80.1899 120.5 80.1899C126.851 80.1899 132 85.3387 132 91.6899Z" fill="white"/>
<path d="M94 51.6899C94 58.0412 88.8513 63.1899 82.5 63.1899C76.1487 63.1899 71 58.0412 71 51.6899C71 45.3387 76.1487 40.1899 82.5 40.1899C88.8513 40.1899 94 45.3387 94 51.6899Z" fill="white"/>
<path d="M34 11.6899C34 8.10009 36.9101 5.18994 40.5 5.18994H125.5C129.09 5.18994 132 8.10009 132 11.6899C132 15.2798 129.09 18.1899 125.5 18.1899H40.5C36.9102 18.1899 34 15.2798 34 11.6899Z" fill="white"/>
<path d="M0 51.6899C0 48.1001 2.91015 45.1899 6.5 45.1899H53.5C57.0899 45.1899 60 48.1001 60 51.6899C60 55.2798 57.0899 58.1899 53.5 58.1899H6.5C2.91015 58.1899 0 55.2798 0 51.6899Z" fill="white"/>
<path d="M0 91.6899C0 88.1001 2.91015 85.1899 6.5 85.1899H91.5C95.0899 85.1899 98 88.1001 98 91.6899C98 95.2798 95.0899 98.1899 91.5 98.1899H6.5C2.91015 98.1899 0 95.2798 0 91.6899Z" fill="white"/>
<path d="M105 51.6899C105 48.1001 107.91 45.1899 111.5 45.1899H125.5C129.09 45.1899 132 48.1001 132 51.6899C132 55.2798 129.09 58.1899 125.5 58.1899H111.5C107.91 58.1899 105 55.2798 105 51.6899Z" fill="white"/>
</svg>
