<svg width="161" height="150" viewBox="0 0 161 150" fill="currentColor" xmlns="http://www.w3.org/2000/svg">
<path fill-rule="evenodd" clip-rule="evenodd" d="M73.5762 3.22177C77.3439 -0.545927 83.4525 -0.545927 87.2202 3.22177L157.971 73.9722C161.738 77.7398 161.738 83.8485 157.971 87.6162C154.203 91.3839 148.094 91.3839 144.327 87.6162L80.3982 23.6878L16.4698 87.6162C12.7021 91.3839 6.59346 91.3839 2.82577 87.6162C-0.941923 83.8485 -0.941923 77.7398 2.82577 73.9722L73.5762 3.22177Z"/>
<path fill-rule="evenodd" clip-rule="evenodd" d="M88.7368 48.5041C84.1318 43.8992 76.6657 43.8992 72.0608 48.5041L29.1817 91.3831C26.9704 93.5945 25.728 96.5937 25.728 99.7211V137.608C25.728 144.12 31.0074 149.4 37.5198 149.4H39.6637V110.809C39.6637 108.441 41.5835 106.521 43.9516 106.521H58.9593C61.3274 106.521 63.2472 108.441 63.2472 110.809V149.4H123.278C129.79 149.4 135.07 144.12 135.07 137.608V99.7211C135.07 96.5938 133.827 93.5945 131.616 91.3831L88.7368 48.5041ZM76.1109 106.521C73.7427 106.521 71.823 108.441 71.823 110.809V136.537C71.823 138.905 73.7427 140.825 76.1109 140.825H121.134C123.502 140.825 125.422 138.905 125.422 136.537V110.809C125.422 108.441 123.502 106.521 121.134 106.521H76.1109Z"/>
</svg>
