<svg width="188" height="121" viewBox="0 0 188 121" fill="none" xmlns="http://www.w3.org/2000/svg">
<path d="M93.497 67.4746C109.535 67.4746 122.536 54.5581 122.536 38.6248C122.536 22.6916 109.535 9.77511 93.497 9.77511C77.4593 9.77511 64.4582 22.6916 64.4582 38.6248C64.4582 54.5581 77.4593 67.4746 93.497 67.4746Z" fill="white"/>
<path d="M144.583 100.401V107.659C144.583 114.581 138.938 120.19 131.97 120.19H55.0356C48.0679 120.19 42.4227 114.581 42.4227 107.659V100.407C42.4227 82.462 57.0636 67.9164 75.1262 67.9164H75.4582C77.0119 67.9164 78.524 68.3229 79.9116 69.018C83.9914 71.0741 88.6108 72.2288 93.503 72.2288C98.3952 72.2288 103.015 71.0682 107.106 69.018C108.488 68.3229 110 67.9164 111.554 67.9164H111.898C129.954 67.9164 144.595 82.462 144.595 100.401H144.583Z" fill="white"/>
<path d="M93.5029 111.153C87.911 109.874 83.7423 104.89 83.7423 98.9458V91.6936C83.7423 84.3235 86.2151 77.5191 90.3779 72.0696C91.4038 72.1757 92.4415 72.2287 93.497 72.2287C94.5525 72.2287 95.5962 72.1757 96.6221 72.0696C100.791 77.5191 103.258 84.3176 103.258 91.6877V98.9458C103.258 104.884 99.0949 109.862 93.5029 111.153Z" fill="white"/>
<path d="M134.603 66.85C135.368 65.4007 136.815 64.411 138.458 64.2696C142.413 63.9397 146.143 62.8557 149.511 61.159C150.899 60.4638 152.411 60.0632 153.958 60.0632H154.302C172.365 60.0632 187.006 74.6088 187.006 92.5538V99.806C187.006 106.728 181.361 112.337 174.393 112.337H153.045C151.326 112.337 149.985 110.923 149.991 109.214V101.226C149.991 89.6965 144.471 79.4456 135.914 72.9416C134.034 71.5159 133.506 68.9296 134.603 66.85Z" fill="white"/>
<path d="M165.468 30.1296C165.468 46.6606 151.978 60.0633 135.339 60.0633C130.233 60.0633 125.424 58.8025 121.219 56.5756C124.594 51.4855 126.556 45.388 126.556 38.8428C126.556 27.4313 120.609 17.4102 111.631 11.6603C117.14 4.67322 125.708 0.189941 135.339 0.189941C151.978 0.189941 165.468 13.5927 165.468 30.1296Z" fill="white"/>
<path d="M52.4027 66.85C51.6377 65.4007 50.1908 64.411 48.5482 64.2696C44.593 63.9397 40.8631 62.8557 37.4949 61.159C36.1073 60.4638 34.5951 60.0632 33.0474 60.0632H32.7035C14.641 60.0632 0 74.6088 0 92.5538V99.806C0 106.728 5.64528 112.337 12.6129 112.337H33.9606C35.6803 112.337 37.0205 110.923 37.0146 109.214V101.226C37.0146 89.6965 42.5353 79.4456 51.0922 72.9416C52.972 71.5159 53.4997 68.9296 52.4027 66.85Z" fill="white"/>
<path d="M21.5316 30.1296C21.5316 46.6606 35.0221 60.0633 51.6615 60.0633C56.7671 60.0633 61.5763 58.8025 65.7806 56.5756C62.4065 51.4855 60.4437 45.388 60.4437 38.8428C60.4437 27.4313 66.3914 17.4102 75.3693 11.6603C69.8663 4.67322 61.2917 0.189941 51.6615 0.189941C35.0221 0.189941 21.5316 13.5927 21.5316 30.1296Z" fill="white"/>
</svg>
