<svg viewBox="0 0 116 116" fill="currentColor">
<path fill-rule="evenodd" clip-rule="evenodd" d="M70.6156 70.0136C82.6875 57.9417 82.6875 38.3694 70.6156 26.2975C58.5438 14.2257 38.9714 14.2257 26.8996 26.2975C14.8277 38.3694 14.8277 57.9417 26.8996 70.0136C38.9714 82.0854 58.5438 82.0854 70.6156 70.0136ZM82.6364 82.0344C101.347 63.3236 101.347 32.9875 82.6364 14.2767C63.9257 -4.43404 33.5895 -4.43404 14.8788 14.2767C-3.83199 32.9875 -3.83199 63.3236 14.8788 82.0344C33.5895 100.745 63.9257 100.745 82.6364 82.0344Z"/>
<path fill-rule="evenodd" clip-rule="evenodd" d="M71.6705 71.9965C75.9662 67.7007 82.9311 67.7007 87.2268 71.9965L112.227 96.9965C116.523 101.292 116.523 108.257 112.227 112.553C107.931 116.849 100.966 116.849 96.6705 112.553L71.6705 87.5529C67.3747 83.2571 67.3747 76.2923 71.6705 71.9965Z"/>
</svg>
