<svg width="53" height="53" viewBox="0 0 53 53" fill="none" xmlns="http://www.w3.org/2000/svg">
<path fill-rule="evenodd" clip-rule="evenodd" d="M26.5 15.6266C20.4948 15.6266 15.6266 20.4948 15.6266 26.5C15.6266 32.5051 20.4948 37.3732 26.5 37.3732C32.5051 37.3732 37.3732 32.5051 37.3732 26.5C37.3732 20.4948 32.5051 15.6266 26.5 15.6266ZM4.95085 26.5C4.95085 14.5987 14.5987 4.95085 26.5 4.95085C38.4012 4.95085 48.049 14.5987 48.049 26.5C48.049 38.4012 38.4012 48.049 26.5 48.049C14.5987 48.049 4.95085 38.4012 4.95085 26.5Z" fill="white"/>
<path d="M9.09044 31.1092V21.8906C9.09044 21.301 8.61247 20.823 8.02286 20.823H1.06758C0.477971 20.823 0 21.301 0 21.8906V31.1092C0 31.6988 0.477971 32.1767 1.06758 32.1767H8.02286C8.61247 32.1767 9.09044 31.6988 9.09044 31.1092Z" fill="white"/>
<path d="M53 31.1092V21.8906C53 21.301 52.522 20.823 51.9324 20.823H44.9771C44.3875 20.823 43.9096 21.301 43.9096 21.8906V31.1092C43.9096 31.6988 44.3875 32.1767 44.9771 32.1767H51.9324C52.522 32.1767 53 31.6988 53 31.1092Z" fill="white"/>
<path d="M31.1093 43.9096H21.8907C21.3011 43.9096 20.8232 44.3875 20.8232 44.9771V51.9324C20.8232 52.522 21.3011 53 21.8907 53H31.1093C31.6989 53 32.1769 52.522 32.1769 51.9324V44.9771C32.1769 44.3875 31.6989 43.9096 31.1093 43.9096Z" fill="white"/>
<path d="M31.1093 0H21.8907C21.3011 0 20.8232 0.477972 20.8232 1.06758V8.02286C20.8232 8.61247 21.3011 9.09044 21.8907 9.09044H31.1093C31.6989 9.09044 32.1769 8.61247 32.1769 8.02286V1.06758C32.1769 0.477972 31.6989 0 31.1093 0Z" fill="white"/>
<path d="M17.4467 42.0699L10.9282 35.5514C10.5113 35.1344 9.83533 35.1344 9.41841 35.5514L4.50028 40.4695C4.08337 40.8864 4.08337 41.5624 4.50028 41.9793L11.0188 48.4978C11.4357 48.9147 12.1117 48.9147 12.5286 48.4978L17.4467 43.5797C17.8636 43.1627 17.8636 42.4868 17.4467 42.0699Z" fill="white"/>
<path d="M48.4979 11.0201L41.9794 4.50159C41.5625 4.08467 40.8866 4.08467 40.4696 4.50159L35.5515 9.41972C35.1346 9.83663 35.1346 10.5126 35.5515 10.9295L42.07 17.448C42.4869 17.8649 43.1629 17.8649 43.5798 17.448L48.4979 12.5299C48.9149 12.113 48.9149 11.437 48.4979 11.0201Z" fill="white"/>
<path d="M10.9315 17.448L17.45 10.9295C17.8669 10.5126 17.8669 9.83663 17.45 9.41972L12.5318 4.50159C12.1149 4.08467 11.439 4.08467 11.022 4.50159L4.50354 11.0201C4.08663 11.437 4.08663 12.113 4.50354 12.5299L9.42167 17.448C9.83859 17.8649 10.5145 17.8649 10.9315 17.448Z" fill="white"/>
<path d="M41.9787 48.494L48.4972 41.9755C48.9141 41.5586 48.9141 40.8826 48.4972 40.4657L43.579 35.5476C43.1621 35.1307 42.4862 35.1307 42.0693 35.5476L35.5508 42.0661C35.1338 42.483 35.1338 43.159 35.5508 43.5759L40.4689 48.494C40.8858 48.9109 41.5618 48.9109 41.9787 48.494Z" fill="white"/>
</svg>
