<svg width="180" height="135" viewBox="0 0 180 135" fill="none" xmlns="http://www.w3.org/2000/svg">
<path d="M149.789 41.4008L131.482 89.5403C130.068 93.2586 126.504 95.7166 122.526 95.7166H25.4742C21.2973 95.7166 17.6016 93.0109 16.3397 89.0291L0.852961 40.1598C-1.1048 33.9819 3.50685 27.6828 9.98747 27.6828H140.879L166.03 2.5326C169.154 -0.591595 174.219 -0.591595 177.343 2.5326C180.468 5.65679 180.468 10.7221 177.343 13.8463L149.789 41.4008Z" fill="white"/>
<path d="M147.341 116.797C147.341 126.323 139.619 134.045 130.093 134.045C120.567 134.045 112.845 126.323 112.845 116.797C112.845 107.272 120.567 99.5494 130.093 99.5494C139.619 99.5494 147.341 107.272 147.341 116.797Z" fill="white"/>
<path d="M20.8543 134.045C30.3801 134.045 38.1023 126.323 38.1023 116.797C38.1023 107.272 30.3801 99.5494 20.8543 99.5494C11.3285 99.5494 3.60627 107.272 3.60627 116.797C3.60627 126.323 11.3285 134.045 20.8543 134.045Z" fill="white"/>
</svg>
