<svg width="171" height="113" viewBox="0 0 171 113" fill="none" xmlns="http://www.w3.org/2000/svg">
<path d="M84.2328 17.0748C81.7163 19.5961 80.1826 23.1051 80.2719 26.9616C80.4307 34.3766 86.6847 40.2233 94.1002 40.2233H168.92V64.7168H4.70794C3.82444 63.6696 3.06006 62.5429 2.41977 61.3617C1.48664 59.6444 0.826498 57.803 0.42942 55.917C-0.682399 50.6113 0.354968 44.9036 3.65568 40.2283H51.1214C58.6113 40.2283 64.6767 34.1582 64.6767 26.6687C64.6767 19.1792 58.6113 13.1142 51.1214 13.1142H29.2771L35.0745 7.04912C39.2537 2.66163 45.0362 0.189941 51.0916 0.189941H159.782C164.825 0.189941 168.92 4.2846 168.92 9.32724V13.1092H93.8222C90.0797 13.1092 86.6897 14.628 84.2328 17.0748Z" fill="white"/>
<path d="M11.1902 70.1615H168.915V83.2793C168.915 88.3219 164.82 92.4166 159.777 92.4166H69.7096C51.4589 92.4166 33.6748 86.6096 18.9432 75.8344L11.1902 70.1615Z" fill="white"/>
<path d="M83.3294 102.824C89.3876 102.824 94.2987 97.9135 94.2987 91.8556C94.2987 85.7978 89.3876 80.8869 83.3294 80.8869C77.2712 80.8869 72.3601 85.7978 72.3601 91.8556C72.3601 97.9135 77.2712 102.824 83.3294 102.824Z" fill="white"/>
<path d="M145.244 102.824C151.302 102.824 156.213 97.9135 156.213 91.8556C156.213 85.7978 151.302 80.8869 145.244 80.8869C139.186 80.8869 134.275 85.7978 134.275 91.8556C134.275 97.9135 139.186 102.824 145.244 102.824Z" fill="white"/>
<path d="M170.989 107.182C171.084 108.602 170.548 109.902 169.624 110.815C168.781 111.664 167.609 112.19 166.314 112.19H8.99633C6.41036 112.19 4.31081 110.095 4.31081 107.505C4.31081 104.919 6.4054 102.819 8.99633 102.819H166.15C168.642 102.819 170.821 104.695 170.989 107.177V107.182Z" fill="white"/>
</svg>
