<svg width="1119" height="1067" viewBox="0 0 1119 1067" fill="none" xmlns="http://www.w3.org/2000/svg">
<mask id="mask0_394_660" style="mask-type:alpha" maskUnits="userSpaceOnUse" x="0" y="0" width="1119" height="1067">
<rect width="1119" height="1067" fill="#D9D9D9"/>
</mask>
<g mask="url(#mask0_394_660)">
<path d="M145.462 60.3776C583.539 -104.984 1118.86 151.276 1296.41 533.531C1221.46 608.773 1469.25 620.684 1141.5 973.5C965 1163.5 394.107 970.421 -1.1278 801.5L-291.512 511.346C-318.49 406.362 -292.616 225.74 145.462 60.3776Z" fill="white"/>
<path d="M1029.16 125.804C1026.4 126.295 1023.83 127.865 1022.15 130.391C1018.91 135.241 1020.31 141.828 1025.08 145.17L1073.31 178.892L1062.27 194.678L956.431 120.667C956.334 119.594 956.349 118.523 956.468 117.473C956.641 115.946 957.045 114.462 957.64 113.067C959.314 109.146 962.555 105.935 966.79 104.41L997.382 125.803C1002.21 129.179 1008.85 128 1012.23 123.173C1015.61 118.346 1014.43 111.703 1009.6 108.328L995.524 98.4822L1001.99 97.1862C1006.66 96.242 1011.51 97.2552 1015.41 99.9844L1085.46 148.972C1088.71 151.245 1089.5 155.729 1087.23 158.98L1085.53 161.417L1037.13 127.57C1034.71 125.883 1031.84 125.334 1029.16 125.804Z" fill="black"/>
<path d="M958.155 127.098L1059.81 198.185L1053.9 206.64C1051.62 209.89 1047.14 210.683 1043.89 208.41L985.841 167.816C974.078 159.591 965.233 147.833 960.595 134.248L958.155 127.098Z" fill="black"/>
<path d="M989.928 180.663C993.832 183.393 999.211 182.442 1001.94 178.537C1004.67 174.633 1003.72 169.254 999.815 166.524C995.911 163.794 990.532 164.745 987.802 168.649C985.071 172.554 986.023 177.932 989.928 180.663Z" fill="black"/>
<path d="M1029.83 208.568C1033.74 211.299 1039.12 210.347 1041.85 206.443C1044.58 202.538 1043.62 197.16 1039.72 194.429C1035.81 191.699 1030.44 192.65 1027.71 196.555C1024.98 200.459 1025.93 205.838 1029.83 208.568Z" fill="black"/>
<path d="M1044.46 222.98C1043.88 223.938 1042.95 224.534 1041.94 224.707C1041.02 224.873 1040.03 224.685 1039.19 224.101L937.798 153.196C936.132 152.031 935.723 149.735 936.89 148.065C938.056 146.398 940.352 145.989 942.022 147.157L1043.31 217.987C1044.91 219.111 1045.47 221.302 1044.46 222.977L1044.46 222.98Z" fill="black"/>
</g>
</svg>
