<svg width="1119" height="1143" viewBox="0 0 1119 1143" fill="none" xmlns="http://www.w3.org/2000/svg">
<mask id="mask0_394_664" style="mask-type:alpha" maskUnits="userSpaceOnUse" x="0" y="0" width="1119" height="1143">
<rect width="1119" height="1143" fill="#D9D9D9"/>
</mask>
<g mask="url(#mask0_394_664)">
<path fill-rule="evenodd" clip-rule="evenodd" d="M747.757 937.156C955.975 1050.8 1216.89 974.124 1330.53 765.906C1444.17 557.688 1367.5 296.77 1159.28 183.131C951.065 69.4909 690.147 146.162 576.507 354.38C462.868 562.599 539.539 823.516 747.757 937.156ZM688.968 1044.87C956.677 1190.98 1292.14 1092.4 1438.25 824.696C1584.36 556.986 1485.78 221.521 1218.07 75.4128C950.363 -70.6954 614.898 27.8817 468.79 295.591C322.681 563.3 421.258 898.766 688.968 1044.87Z" fill="white"/>
<path d="M1066.62 621.869C1032.53 684.335 954.25 707.336 891.785 673.244C829.319 639.152 806.318 560.877 840.41 498.411C874.502 435.946 952.777 412.945 1015.24 447.037C1077.71 481.128 1100.71 559.404 1066.62 621.869Z" fill="white"/>
<path d="M1365.7 621.786C1365.52 621.93 1365.44 622.171 1365.51 622.395C1365.62 622.783 1365.31 623.163 1364.91 623.125L1364.45 623.081C1364.23 623.059 1364 623.126 1363.83 623.266L1363.47 623.548C1363.15 623.798 1362.68 623.648 1362.57 623.26C1362.5 623.036 1362.3 622.875 1362.07 622.853L1240.03 611.143C1183.8 605.748 1136.5 566.685 1120.57 512.482L-nan -nanCnan nan nan nan -nan -nanC-nan -nan -nan -nan -nan -nanC-nan -nan -nan -nan -nan -nanC-nan -nan -nan -nan -nan -nanC-nan -nan -nan -nan -nan -nanC-nan -nan -nan -nan -nan -nanCnan nan nan nan nan nanLnan nanCnan nan nan nan -nan -nanC-nan -nan -nan -nan -nan -nanC-nan -nan -nan -nan -nan -nanC-nan -nan -nan -nan -nan -nanC-nan -nan -nan -nan -nan -nanC-nan -nan -nan -nan -nan -nanCnan nan nan nan -nan -nanL1120.57 512.482C1104.64 458.28 1123.29 399.839 1167.67 364.878L1263.97 289.007C1264.15 288.863 1264.23 288.621 1264.17 288.397C1264.05 288.01 1264.37 287.629 1264.77 287.668L1265.22 287.712C1265.45 287.733 1265.67 287.667 1265.85 287.527L1266.21 287.245C1266.53 286.995 1267 287.145 1267.11 287.533C1267.18 287.756 1267.37 287.918 1267.6 287.94L1687.13 328.192C1703.65 329.777 1709.8 350.702 1696.76 360.974L1365.7 621.786Z" fill="white"/>
<path d="M536.716 498.187C536.9 498.043 536.977 497.802 536.911 497.578C536.797 497.19 537.111 496.81 537.513 496.848L537.967 496.892C538.192 496.913 538.417 496.847 538.595 496.707L538.953 496.425C539.271 496.175 539.74 496.325 539.854 496.713C539.92 496.937 540.115 497.098 540.348 497.12L662.389 508.83C718.625 514.225 765.923 553.288 781.851 607.49L-nan -nanCnan nan nan nan -nan -nanC-nan -nan -nan -nan -nan -nanC-nan -nan -nan -nan -nan -nanC-nan -nan -nan -nan -nan -nanC-nan -nan -nan -nan -nan -nanC-nan -nan -nan -nan -nan -nanCnan nan nan nan nan nanLnan nanCnan nan nan nan -nan -nanC-nan -nan -nan -nan -nan -nanC-nan -nan -nan -nan -nan -nanC-nan -nan -nan -nan -nan -nanC-nan -nan -nan -nan -nan -nanC-nan -nan -nan -nan -nan -nanCnan nan nan nan -nan -nanL781.851 607.49C797.778 661.693 779.132 720.134 734.754 755.095L638.449 830.966C638.266 831.11 638.189 831.352 638.254 831.575C638.368 831.963 638.054 832.343 637.652 832.305L637.198 832.261C636.973 832.24 636.748 832.306 636.57 832.446L636.212 832.728C635.895 832.978 635.425 832.828 635.311 832.44C635.245 832.216 635.05 832.055 634.818 832.033L215.293 791.781C198.769 790.196 192.621 769.271 205.66 758.998L536.716 498.187Z" fill="white"/>
</g>
</svg>
