<?xml version="1.0" encoding="UTF-8"?><svg xmlns="http://www.w3.org/2000/svg" viewBox="0 0 26.79 34.5"><defs><style>.d{fill:#e46b57;}.e{fill:#7fb4dd;}.f{fill:#b53630;}.g{fill:#ce5849;}.h{fill:#ce4136;}.i{fill:#aed9ff;}.j{fill:#1e1e1e;}.k{fill:#4296ff;}.l{fill:#2d2d2d;}.m{fill:#348ae8;}</style></defs><g id="a"/><g id="b"><g id="c"><g><rect class="j" x="3.44" y="6.85" width="20.22" height="20.22" rx="10.11" ry="10.11"/><path class="k" d="M6.26,18.69v7.91c0,1.03-1.24,1.54-1.97,.81l-.56-.56L.34,23.46c-.45-.45-.45-1.18,0-1.63l3.4-3.39,.56-.56c.73-.73,1.97-.21,1.97,.81Z"/><path class="d" d="M26.45,12.67l-3.8,3.8-.15,.15c-.72,.73-1.97,.21-1.97-.82V7.9c0-1.03,1.25-1.54,1.97-.81l.15,.15,3.8,3.8c.45,.45,.45,1.18,0,1.63Z"/><path class="i" d="M12.26,9.53v24.34c0,.56-.67,.84-1.07,.44l-.82-.82-1.7-1.71c-.12-.12-.18-.28-.18-.44V12.06c0-.16,.06-.32,.18-.44l1.71-1.71,.82-.82c.4-.4,1.07-.12,1.07,.44Z"/><path class="e" d="M12.26,9.53v24.34c0,.56-.67,.84-1.07,.44l-.82-.82V9.91l.82-.82c.4-.4,1.07-.12,1.07,.44Z"/><path class="h" d="M18.3,3.15V22.44c0,.16-.07,.33-.18,.44l-1.36,1.37-1.16,1.16c-.39,.39-1.07,.11-1.07-.44V.63c0-.56,.67-.84,1.07-.44l1.16,1.16,1.36,1.36c.12,.12,.18,.28,.18,.44Z"/><path class="f" d="M18.3,3.15V22.44c0,.16-.07,.33-.18,.44l-1.36,1.37V1.34l1.36,1.36c.12,.12,.18,.28,.18,.44Z"/><path class="l" d="M22.27,18.02h0l-.05-.05s.04,.04,.06,.05Z"/><path class="m" d="M6.26,18.69v7.91c0,1.03-1.24,1.54-1.97,.81l-.56-.56v-8.41l.56-.56c.73-.73,1.97-.21,1.97,.81Z"/><path class="g" d="M26.45,12.67l-3.8,3.8V7.24l3.8,3.8c.45,.45,.45,1.18,0,1.63Z"/></g></g></g></svg>