<?xml version="1.0" encoding="UTF-8"?><svg xmlns="http://www.w3.org/2000/svg" viewBox="0 0 52.47 67.58"><defs><style>.d{fill:#6b6b6b;}.e{fill:#e0e0e0;}.f{fill:#2d2d2d;}</style></defs><g id="a"/><g id="b"><g id="c"><g><circle class="e" cx="26.23" cy="33.22" r="22.45"/><path class="f" d="M12.26,36.62v15.48c0,2.01-2.43,3.02-3.86,1.6L.66,45.95c-.88-.88-.88-2.31,0-3.19l7.74-7.74c1.42-1.42,3.86-.42,3.86,1.6Z"/><path class="d" d="M40.21,30.96V15.48c0-2.01,2.43-3.02,3.86-1.6l7.74,7.74c.88,.88,.88,2.31,0,3.19l-7.74,7.74c-1.42,1.42-3.86,.42-3.86-1.6Z"/><path class="f" d="M16.62,23.62V61.41c0,.33,.13,.64,.36,.87l4.94,4.94c.77,.77,2.1,.23,2.1-.87V18.68c0-1.09-1.32-1.64-2.1-.87l-4.94,4.95c-.23,.23-.36,.54-.36,.87Z"/><path class="d" d="M35.85,43.95V6.17c0-.33-.13-.64-.36-.87L30.55,.36c-.77-.77-2.1-.23-2.1,.87V48.9c0,1.09,1.32,1.64,2.1,.87l4.94-4.95c.23-.23,.36-.54,.36-.87Z"/><path class="f" d="M43.61,35.29h0l-.1-.1s.07,.07,.11,.1Z"/></g></g></g></svg>