<svg width="169" height="169" viewBox="0 0 169 169" fill="none" xmlns="http://www.w3.org/2000/svg">
<path d="M165.985 78.5763L89.6964 2.30009C86.6292 -0.766696 81.6561 -0.766697 78.5888 2.30009L2.30046 78.5763C-0.76682 81.6431 -0.766819 86.6154 2.30046 89.6821L78.5888 165.958C81.6561 169.025 86.6292 169.025 89.6964 165.958L165.985 89.6821C169.052 86.6153 169.052 81.6431 165.985 78.5763Z" fill="#1D1D1D"/>
<path d="M60.5088 88.9045V115.106C60.5088 118.504 56.3982 120.219 53.9923 117.792L52.1367 115.937L40.8839 104.708C39.3951 103.219 39.3951 100.803 40.8839 99.314L53.9923 86.2292C56.3982 83.8129 60.5088 85.5173 60.5088 88.9152V88.9045Z" fill="#4296FF"/>
<path d="M127.41 68.9375L114.312 82.0438C111.906 84.4493 107.785 82.7341 107.785 79.3362V53.1344C107.785 49.7365 111.917 48.0213 114.312 50.4484L127.41 63.5439C128.898 65.0326 128.898 67.4489 127.41 68.9375Z" fill="#E46B57"/>
<path d="M80.4028 58.5605V139.194C80.4028 141.049 78.1695 141.988 76.8533 140.661L74.1453 137.953L68.5135 132.301C68.1251 131.913 67.9093 131.384 67.9093 130.845V66.9205C67.9093 66.3811 68.1143 65.8525 68.5027 65.4642L76.8641 57.0934C78.1803 55.7774 80.4136 56.7051 80.4136 58.5497L80.4028 58.5605Z" fill="#AED9FF"/>
<path d="M80.4028 58.5605V139.194C80.4028 141.049 78.1695 141.988 76.8533 140.661L74.1453 137.953L74.1457 59.801L76.8537 57.0934C78.1699 55.7774 80.4032 56.7051 80.4032 58.5497L80.4028 58.5605Z" fill="#7FB4DD"/>
<path d="M100.417 37.4065V101.309C100.417 101.849 100.201 102.388 99.8126 102.776L95.2921 107.307L91.4513 111.147C90.1459 112.452 87.9126 111.525 87.9126 109.68V29.0465C87.9126 27.1912 90.1459 26.2743 91.4513 27.5795L99.8126 35.9395C100.201 36.3278 100.417 36.8564 100.417 37.4065Z" fill="#CE4136"/>
<path d="M100.417 37.4065V101.309C100.417 101.849 100.201 102.388 99.8126 102.776L95.2921 107.307L95.2921 31.4087L99.8126 35.9285C100.201 36.3168 100.417 36.8454 100.417 37.3955L100.417 37.4065Z" fill="#B53630"/>
<path d="M113.546 86.6605L113.373 86.4987C113.427 86.5526 113.492 86.6173 113.556 86.6605H113.546Z" fill="#2D2D2D"/>
<path d="M60.5088 88.9045V115.106C60.5088 118.504 56.3982 120.219 53.9923 117.792L52.1367 115.937L52.1364 88.0734L53.9921 86.218C56.398 83.8017 60.5088 85.5065 60.5088 88.9045Z" fill="#348AE8"/>
<path d="M127.41 68.9376L114.82 81.5369V50.9555L127.41 63.544C128.899 65.0327 128.899 67.449 127.41 68.9376Z" fill="#CE5849"/>
</svg>
