<svg width="1119" height="1388" viewBox="0 0 1119 1388" fill="none" xmlns="http://www.w3.org/2000/svg">
<path d="M145.462 197.378C583.539 32.0156 1118.86 288.276 1296.41 670.531C1221.46 745.773 1469.25 757.684 1141.5 1110.5C965 1300.5 394.107 1107.42 -1.1278 938.5L-291.512 648.346C-318.49 543.362 -292.616 362.74 145.462 197.378Z" fill="white"/>
<path d="M1029.16 262.804C1026.4 263.295 1023.83 264.865 1022.15 267.391C1018.91 272.241 1020.31 278.828 1025.08 282.17L1073.31 315.892L1062.27 331.678L956.431 257.667C956.334 256.594 956.349 255.523 956.468 254.473C956.641 252.946 957.045 251.462 957.64 250.067C959.314 246.146 962.555 242.935 966.79 241.41L997.382 262.803C1002.21 266.179 1008.85 265 1012.23 260.173C1015.61 255.346 1014.43 248.703 1009.6 245.328L995.524 235.482L1001.99 234.186C1006.66 233.242 1011.51 234.255 1015.41 236.984L1085.46 285.972C1088.71 288.245 1089.5 292.729 1087.23 295.98L1085.53 298.417L1037.13 264.57C1034.71 262.883 1031.84 262.334 1029.16 262.804Z" fill="black"/>
<path d="M958.155 264.098L1059.81 335.185L1053.9 343.64C1051.62 346.89 1047.14 347.683 1043.89 345.41L985.841 304.816C974.078 296.591 965.233 284.833 960.595 271.248L958.155 264.098Z" fill="black"/>
<path d="M989.928 317.663C993.832 320.393 999.211 319.442 1001.94 315.537C1004.67 311.633 1003.72 306.254 999.815 303.524C995.911 300.794 990.532 301.745 987.802 305.649C985.071 309.554 986.023 314.932 989.928 317.663Z" fill="black"/>
<path d="M1029.83 345.568C1033.74 348.299 1039.12 347.347 1041.85 343.443C1044.58 339.538 1043.62 334.16 1039.72 331.429C1035.81 328.699 1030.44 329.65 1027.71 333.555C1024.98 337.459 1025.93 342.838 1029.83 345.568Z" fill="black"/>
<path d="M1044.46 359.98C1043.88 360.938 1042.95 361.534 1041.94 361.707C1041.02 361.873 1040.03 361.685 1039.19 361.101L937.798 290.196C936.132 289.031 935.723 286.735 936.89 285.065C938.056 283.398 940.352 282.989 942.022 284.157L1043.31 354.987C1044.91 356.111 1045.47 358.302 1044.46 359.977L1044.46 359.98Z" fill="black"/>
</svg>
